<svg xmlns="http://www.w3.org/2000/svg" viewBox="0 0 512 512"><defs><linearGradient id="cubeTop" x1="0" x2=".5" y1="1" y2="0"><stop offset="0%" stop-color="#141414"/><stop offset="100%" stop-color="#1c1c1c"/></linearGradient><linearGradient id="cubeLeft" x1="1" x2="0" y1="0" y2=".5"><stop offset="0%" stop-color="#101010"/><stop offset="100%" stop-color="#080808"/></linearGradient><linearGradient id="cubeRight" x1="0" x2="1" y1="0" y2=".5"><stop offset="0%" stop-color="#0d0d0d"/><stop offset="100%" stop-color="#050505"/></linearGradient><linearGradient id="jackDepth" x1="0" x2="0" y1="0" y2="1"><stop offset="0%" stop-color="#00e5a0" stop-opacity=".12"/><stop offset="100%" stop-color="#000" stop-opacity="0"/></linearGradient></defs><rect width="512" height="512" fill="#000" rx="112"/><path fill="url(#cubeTop)" stroke="#00e5a0" stroke-linejoin="round" stroke-opacity=".45" stroke-width="2.5" d="M256,68 L434,170 L256,272 L78,170 Z"/><path fill="url(#cubeLeft)" stroke="#00e5a0" stroke-linejoin="round" stroke-opacity=".3" stroke-width="2.5" d="M78,170 L256,272 L256,444 L78,342 Z"/><path fill="url(#cubeRight)" stroke="#00e5a0" stroke-linejoin="round" stroke-opacity=".3" stroke-width="2.5" d="M434,170 L256,272 L256,444 L434,342 Z"/><g transform="translate(256, 248)"><path fill="none" stroke="#00e5a0" stroke-linecap="round" stroke-width="13" d="M-120,-86 A146,86 0 0,1 120,-86" opacity=".3"/><path fill="none" stroke="#00e5a0" stroke-linecap="round" stroke-width="13" d="M-90,-64 A110,64 0 0,1 90,-64" opacity=".5"/><path fill="none" stroke="#00e5a0" stroke-linecap="round" stroke-width="13" d="M-60,-44 A74,44 0 0,1 60,-44" opacity=".75"/><path fill="none" stroke="#00e5a0" stroke-linecap="round" stroke-width="13" d="M-32,-24 A40,24 0 0,1 32,-24" opacity=".9"/><circle cx="0" cy="0" r="12" fill="#00e5a0"/></g><g transform="translate(166, 330) skewY(30)"><path fill="none" stroke="#00e5a0" stroke-linecap="round" stroke-linejoin="round" stroke-width="13" d="M-36,-36 L-60,-10 L-36,16"/><line x1="-16" x2="0" y1="-44" y2="24" stroke="#00e5a0" stroke-linecap="round" stroke-width="9" opacity=".35"/><path fill="none" stroke="#00e5a0" stroke-linecap="round" stroke-linejoin="round" stroke-width="13" d="M20,-36 L44,-10 L20,16"/></g><g fill="#00e5a0" font-family="monospace" font-size="24" font-weight="700"><text x="-44" y="-56" opacity=".9" transform="translate(342, 350) skewY(-30)">1</text><text x="-44" y="-28" opacity=".55" transform="translate(342, 350) skewY(-30)">0</text><text x="-44" y="0" opacity=".3" transform="translate(342, 350) skewY(-30)">1</text><text x="-44" y="28" opacity=".12" transform="translate(342, 350) skewY(-30)">0</text><text x="-14" y="-68" opacity=".4" transform="translate(342, 350) skewY(-30)">0</text><text x="-14" y="-40" opacity=".85" transform="translate(342, 350) skewY(-30)">1</text><text x="-14" y="-12" opacity=".6" transform="translate(342, 350) skewY(-30)">0</text><text x="-14" y="16" opacity=".25" transform="translate(342, 350) skewY(-30)">1</text><text x="-14" y="44" opacity=".08" transform="translate(342, 350) skewY(-30)">0</text><text x="16" y="-50" opacity=".7" transform="translate(342, 350) skewY(-30)">1</text><text x="16" y="-22" opacity=".4" transform="translate(342, 350) skewY(-30)">0</text><text x="16" y="6" opacity=".9" transform="translate(342, 350) skewY(-30)">1</text><text x="16" y="34" opacity=".15" transform="translate(342, 350) skewY(-30)">0</text><text x="46" y="-62" opacity=".5" transform="translate(342, 350) skewY(-30)">0</text><text x="46" y="-34" opacity=".8" transform="translate(342, 350) skewY(-30)">1</text><text x="46" y="-6" opacity=".3" transform="translate(342, 350) skewY(-30)">0</text><text x="72" y="-44" opacity=".6" transform="translate(342, 350) skewY(-30)">1</text><text x="72" y="-16" opacity=".35" transform="translate(342, 350) skewY(-30)">0</text></g></svg>